<svg width="437" height="437" viewBox="0 0 437 437" fill="none" xmlns="http://www.w3.org/2000/svg">
<rect width="437" height="437" fill="#5E5E5E"/>
<g id="cards">
<rect width="4784" height="13444" transform="translate(-570 -5956)" fill="white"/>
<g id="news-card">
<rect x="-529.5" y="-16.5" width="2210" height="1683" rx="4.5" stroke="#9747FF" stroke-dasharray="10 5"/>
<g id="device=desktop, type=animation, condition=default">
<g id="image-container">
<g clip-path="url(#clip0_922_83156)">
<g id="img">
<g clip-path="url(#clip1_922_83156)">
<rect id="Rectangle 208" width="449" height="637" fill="#FE7A6D"/>
<g id="animation">
<g id="03">
<g id="row">
<g id="icon">
<path id="Vector" d="M196.16 193.018L173.186 165.501L208.473 159.189L196.16 193.018Z" fill="#F8BB92"/>
</g>
<g id="icon_2">
<path id="Vector_2" d="M196.16 148.587L173.186 121.07L208.473 114.758L196.16 148.587Z" fill="#F8BB92"/>
</g>
</g>
<g id="row_2">
<g id="icon_3">
<path id="Vector_3" d="M154.717 215.234L131.742 187.717L167.029 181.405L154.717 215.234Z" fill="#F8BB92"/>
</g>
<g id="icon_4">
<path id="Vector_4" d="M154.717 170.803L131.742 143.286L167.029 136.974L154.717 170.803Z" fill="#F8BB92"/>
</g>
<g id="icon_5">
<path id="Vector_5" d="M154.717 126.371L131.742 98.8541L167.029 92.5422L154.717 126.371Z" fill="#F8BB92"/>
</g>
</g>
<g id="row_3">
<g id="icon_6">
<path id="Vector_6" d="M84.1424 115.769L119.429 109.457L96.4551 81.9397L84.1424 115.769Z" fill="#F8BB92"/>
</g>
<g id="icon_7">
<path id="Vector_7" d="M84.1424 160.2L119.429 153.888L96.4551 126.371L84.1424 160.2Z" fill="#F8BB92"/>
</g>
<g id="icon_8">
<path id="Vector_8" d="M84.1424 204.632L119.429 198.32L96.4551 170.803L84.1424 204.632Z" fill="#F8BB92"/>
</g>
</g>
<g id="row_4">
<g id="icon_9">
<path id="Vector_9" d="M42.699 137.984L77.9858 131.673L55.0117 104.156L42.699 137.984Z" fill="#F8BB92"/>
</g>
<g id="icon_10">
<path id="Vector_10" d="M42.699 182.416L77.9858 176.104L55.0117 148.587L42.699 182.416Z" fill="#F8BB92"/>
</g>
</g>
</g>
<g id="02">
<g id="row_5">
<g id="icon_11">
<path id="Vector_11" d="M384.16 276.017L361.186 248.5L396.473 242.188L384.16 276.017Z" fill="#F8BB92"/>
</g>
<g id="icon_12">
<path id="Vector_12" d="M384.16 231.586L361.186 204.069L396.473 197.757L384.16 231.586Z" fill="#F8BB92"/>
</g>
</g>
<g id="row_6">
<g id="icon_13">
<path id="Vector_13" d="M342.717 298.233L319.742 270.716L355.029 264.404L342.717 298.233Z" fill="#F8BB92"/>
</g>
<g id="icon_14">
<path id="Vector_14" d="M342.717 253.802L319.742 226.285L355.029 219.973L342.717 253.802Z" fill="#F8BB92"/>
</g>
<g id="icon_15">
<path id="Vector_15" d="M342.717 209.37L319.742 181.853L355.029 175.541L342.717 209.37Z" fill="#F8BB92"/>
</g>
</g>
<g id="row_7">
<g id="icon_16">
<path id="Vector_16" d="M272.142 198.768L307.429 192.456L284.455 164.939L272.142 198.768Z" fill="#F8BB92"/>
</g>
<g id="icon_17">
<path id="Vector_17" d="M272.142 243.199L307.429 236.887L284.455 209.37L272.142 243.199Z" fill="#F8BB92"/>
</g>
<g id="icon_18">
<path id="Vector_18" d="M272.142 287.631L307.429 281.319L284.455 253.802L272.142 287.631Z" fill="#F8BB92"/>
</g>
</g>
<g id="row_8">
<g id="icon_19">
<path id="Vector_19" d="M230.699 220.983L265.986 214.672L243.012 187.155L230.699 220.983Z" fill="#F8BB92"/>
</g>
<g id="icon_20">
<path id="Vector_20" d="M230.699 265.415L265.986 259.103L243.012 231.586L230.699 265.415Z" fill="#F8BB92"/>
</g>
</g>
</g>
<g id="01">
<g id="icon_21">
<path id="Vector_21" d="M115.581 272.928L103.238 239.273L80.1279 266.676L115.581 272.928Z" fill="#F8BB92"/>
</g>
<g id="icon_22">
<path id="Vector_22" d="M148.927 253.676L136.583 220.021L113.474 247.424L148.927 253.676Z" fill="#F8BB92"/>
</g>
<g id="icon_23">
<path id="Vector_23" d="M182.271 234.423L169.928 200.769L146.818 228.172L182.271 234.423Z" fill="#F8BB92"/>
</g>
<g id="icon_24">
<path id="Vector_24" d="M215.617 215.171L203.274 181.517L180.164 208.92L215.617 215.171Z" fill="#F8BB92"/>
</g>
<g id="icon_25">
<path id="Vector_25" d="M248.963 195.92L236.619 162.265L213.51 189.668L248.963 195.92Z" fill="#F8BB92"/>
</g>
<g id="icon_26">
<path id="Vector_26" d="M282.309 176.668L269.965 143.013L246.855 170.416L282.309 176.668Z" fill="#F8BB92"/>
</g>
<g id="icon_27">
<path id="Vector_27" d="M315.653 157.416L303.31 123.761L280.2 151.164L315.653 157.416Z" fill="#F8BB92"/>
</g>
<g id="icon_28">
<path id="Vector_28" d="M348.999 138.163L336.656 104.509L313.546 131.912L348.999 138.163Z" fill="#F8BB92"/>
</g>
</g>
</g>
</g>
</g>
<rect id="overlay" width="437" height="437" fill="#141414" fill-opacity="0.1"/>
</g>
</g>
</g>
</g>
</g>
<defs>
<clipPath id="clip0_922_83156">
<path d="M0 3.99999C0 1.79086 1.79086 0 4 0H433C435.209 0 437 1.79086 437 4V433C437 435.209 435.209 437 433 437H3.99999C1.79086 437 0 435.209 0 433V3.99999Z" fill="white"/>
</clipPath>
<clipPath id="clip1_922_83156">
<path d="M0 3.99999C0 1.79086 1.79086 0 4 0H433C435.209 0 437 1.79086 437 4V433C437 435.209 435.209 437 433 437H3.99999C1.79086 437 0 435.209 0 433V3.99999Z" fill="white"/>
</clipPath>
</defs>
</svg>
