<svg preserveAspectRatio="none" overflow="visible" style="display: block;" width="24" height="24" viewBox="0 0 24 24" fill="none" xmlns="http://www.w3.org/2000/svg">
<g id="container">
<g id="vector">
<path d="M15.0077 16C15.56 16 16.0077 16.4477 16.0077 17C16.0077 17.5523 15.56 18 15.0077 18H9.00774C8.45546 18 8.00774 17.5523 8.00774 17C8.00774 16.4477 8.45546 16 9.00774 16H15.0077Z" fill="#808080"/>
<path d="M16.2743 13.3311C16.6438 12.9208 17.276 12.8875 17.6865 13.2568C18.0968 13.6263 18.13 14.2585 17.7607 14.6689L17.7509 14.6797C17.3814 15.0902 16.7493 15.1233 16.3388 14.7539C15.9285 14.3844 15.8952 13.7522 16.2646 13.3418L16.2743 13.3311Z" fill="#808080"/>
<path fill-rule="evenodd" clip-rule="evenodd" d="M17.1074 2C18.2957 2.00004 19.0076 3.0679 19.0077 4.0498V9C19.6868 9.00041 20.3093 9.13799 20.8202 9.49316C21.3427 9.85652 21.6309 10.365 21.789 10.876C21.9413 11.3686 21.9871 11.9079 22.0029 12.4121C22.0184 12.9101 22.0048 13.4842 22.0048 14V20.4004C22.0046 21.2839 21.2887 21.9999 20.4052 22H3.6054C2.72191 22 2.00503 21.2839 2.00481 20.4004V14C2.00481 13.4842 1.99224 12.9101 2.00774 12.4121C2.02346 11.9079 2.06927 11.3686 2.22161 10.876C2.37966 10.365 2.66704 9.8565 3.18938 9.49316C3.70102 9.13739 4.32461 9.00006 5.00481 9H5.00774V4.0498C5.00784 3.06785 5.71981 2 6.90813 2H17.1074ZM5.00481 11C4.58114 11.0001 4.40235 11.0868 4.33196 11.1357C4.27241 11.1772 4.19755 11.2541 4.13177 11.4668C4.06025 11.6981 4.02088 12.0218 4.00677 12.4746C3.99249 12.9335 4.00481 13.4115 4.00481 14V20H20.0048V14C20.0048 13.4115 20.0181 12.9335 20.0038 12.4746C19.9897 12.0218 19.9494 11.6981 19.8779 11.4668C19.8122 11.2545 19.7381 11.1772 19.6786 11.1357C19.6083 11.0868 19.4289 11 19.0048 11H5.00481ZM7.00774 4.0498V9H17.0077V4.0498C17.0077 4.03007 17.0032 4.01376 16.9999 4H7.01556C7.01224 4.01376 7.00776 4.03006 7.00774 4.0498Z" fill="#808080"/>
</g>
</g>
</svg>
