<svg preserveAspectRatio="none" width="100%" height="100%" overflow="visible" style="display: block;" viewBox="0 0 24 24" fill="none" xmlns="http://www.w3.org/2000/svg">
<g id="container">
<path id="vector" d="M20.4861 19.0722C20.8766 19.4627 20.8766 20.0967 20.4861 20.4873C20.0956 20.8774 19.4624 20.8775 19.072 20.4873L12.0007 13.416L4.92944 20.4873C4.53888 20.8774 3.90576 20.8776 3.51537 20.4873C3.12498 20.0969 3.12525 19.4637 3.51537 19.0732L10.5867 12.0019L3.51537 4.93061C3.12514 4.5402 3.12529 3.90705 3.51537 3.51655C3.9059 3.12603 4.53989 3.12603 4.93041 3.51655L12.0017 10.5869L19.072 3.51655C19.4625 3.12603 20.0956 3.12603 20.4861 3.51655C20.8766 3.90708 20.8766 4.54009 20.4861 4.93061L13.4158 12.0009L20.4861 19.0722Z" fill="white"/>
</g>
</svg>
